# xmcd
#
# Track frame offsets:
#	150
#	20316
#	36065
#	50057
#	68575
#	79059
#	100130
#	114375
#	131511
#	142535
#	159834
#	176241
#	188509
#	205599
#	223982
#	241749
#	257627
#	276450
#
# Disc length: 3889 seconds
#
# Revision: 1
# Processed by: cddbd v1.4PL0 Copyright (c) Steve Scherf et al.
# Submitted via: audiograbber 1.80
#
DISCID=f00f2f12
DTITLE=Ploutarxos - Pio Monopati
DYEAR=1900
DGENRE=
TTITLE0=Poio monopati
TTITLE1=An ftais esy
TTITLE2=Poio stoma kaii tora ta xeili sou
TTITLE3=Sabbato eklapsa gia sena
TTITLE4=Den einai o erotas
TTITLE5=Tis fwtografies soy krataw
TTITLE6=Prospathisa
TTITLE7=Den einai lysi o xorismos
TTITLE8=Kian Sagaphsa Trelh
TTITLE9=Epsaxna xronia na se bro
TTITLE10=Monos arga mesanyxta
TTITLE11=Fobamai emena
TTITLE12=Mi gireiseis ksana
TTITLE13=Kardia mou isoun gyalini
TTITLE14=Gela pote mi klais
TTITLE15=Mipos sou zitisa polla
TTITLE16=Kamia den moiazei me sena matia mou
TTITLE17=Kai o nous mou pali ksenyxta
EXTD=
EXTT0=
EXTT1=
EXTT2=
EXTT3=
EXTT4=
EXTT5=
EXTT6=
EXTT7=
EXTT8=
EXTT9=
EXTT10=
EXTT11=
EXTT12=
EXTT13=
EXTT14=
EXTT15=
EXTT16=
EXTT17=
PLAYORDER=
